<svg xmlns="http://www.w3.org/2000/svg" xmlns:xlink="http://www.w3.org/1999/xlink" width="500" zoomAndPan="magnify" viewBox="0 0 375 374.999991" height="500" preserveAspectRatio="xMidYMid meet" version="1.0"><defs><clipPath id="f159cf95f8"><path d="M 123 121 L 355.019531 121 L 355.019531 355.019531 L 123 355.019531 Z M 123 121 " clip-rule="nonzero"/></clipPath><clipPath id="5d4880e820"><path d="M 19.769531 19.769531 L 247 19.769531 L 247 249 L 19.769531 249 Z M 19.769531 19.769531 " clip-rule="nonzero"/></clipPath><clipPath id="15b2adbe10"><path d="M 125 148 L 249 148 L 249 234.363281 L 125 234.363281 Z M 125 148 " clip-rule="nonzero"/></clipPath><clipPath id="b796ea74b3"><path d="M 174 111.363281 L 200 111.363281 L 200 137 L 174 137 Z M 174 111.363281 " clip-rule="nonzero"/></clipPath><clipPath id="d0a098fb02"><path d="M 255 170 L 268.765625 170 L 268.765625 214 L 255 214 Z M 255 170 " clip-rule="nonzero"/></clipPath><clipPath id="2230d125bb"><path d="M 106.015625 170 L 119 170 L 119 214 L 106.015625 214 Z M 106.015625 170 " clip-rule="nonzero"/></clipPath></defs><g clip-path="url(#f159cf95f8)"><path fill="#00bf63" d="M 329.203125 204.019531 L 246.566406 121.507812 L 123.25 248.441406 L 204.167969 329.371094 L 204.179688 329.363281 C 220.195312 345.34375 242.300781 355.230469 266.703125 355.230469 C 315.589844 355.230469 355.230469 315.589844 355.230469 266.703125 C 355.230469 242.214844 345.277344 220.046875 329.203125 204.019531 Z M 329.203125 204.019531 " fill-opacity="1" fill-rule="nonzero"/></g><g clip-path="url(#5d4880e820)"><path fill="#fdcb58" d="M 168.125 43.183594 C 152.359375 28.6875 131.394531 19.769531 108.292969 19.769531 C 59.398438 19.769531 19.769531 59.398438 19.769531 108.292969 C 19.769531 131.394531 28.695312 152.367188 43.195312 168.125 L 43.0625 168.257812 L 123.25 248.441406 L 246.566406 121.507812 Z M 168.125 43.183594 " fill-opacity="1" fill-rule="nonzero"/></g><g clip-path="url(#15b2adbe10)"><path fill="#ffffff" d="M 238.625 234.398438 L 136.175781 234.398438 C 130.457031 234.398438 125.976562 229.921875 125.976562 224.296875 L 125.976562 158.730469 C 125.976562 153.011719 130.457031 148.628906 136.175781 148.628906 L 238.339844 148.628906 C 243.960938 148.628906 248.441406 153.011719 248.441406 158.730469 L 248.441406 224.296875 C 248.726562 229.921875 243.960938 234.398438 238.625 234.398438 Z M 204.792969 218.007812 L 169.625 218.007812 C 167.242188 218.007812 165.527344 216.195312 165.527344 213.8125 C 165.527344 211.433594 167.242188 209.621094 169.625 209.621094 L 205.078125 209.621094 C 207.460938 209.621094 209.273438 211.433594 209.273438 213.8125 C 209.273438 216.195312 207.175781 218.007812 204.792969 218.007812 Z M 161.335938 196.566406 C 152.664062 196.566406 145.515625 189.417969 145.515625 180.746094 C 145.515625 172.167969 152.664062 165.019531 161.335938 165.019531 C 170.007812 165.019531 177.15625 172.167969 177.15625 180.746094 C 177.15625 189.703125 170.292969 196.566406 161.335938 196.566406 Z M 161.335938 173.882812 C 157.425781 173.882812 154.1875 177.21875 154.1875 181.03125 C 154.1875 184.9375 157.425781 188.179688 161.335938 188.179688 C 165.148438 188.179688 168.484375 184.9375 168.484375 181.03125 C 168.484375 177.21875 165.527344 173.882812 161.335938 173.882812 Z M 213.179688 196.566406 C 204.507812 196.566406 197.359375 189.417969 197.359375 180.746094 C 197.359375 172.167969 204.507812 165.019531 213.179688 165.019531 C 221.757812 165.019531 228.902344 172.167969 228.902344 180.746094 C 228.617188 189.703125 221.757812 196.566406 213.179688 196.566406 Z M 213.179688 173.882812 C 209.273438 173.882812 206.03125 177.21875 206.03125 181.03125 C 206.03125 184.9375 209.273438 188.179688 213.179688 188.179688 C 216.992188 188.179688 220.328125 184.9375 220.328125 181.03125 C 220.039062 177.21875 216.992188 173.882812 213.179688 173.882812 Z M 213.179688 173.882812 " fill-opacity="1" fill-rule="evenodd"/></g><path fill="#ffffff" d="M 187.351562 157.203125 C 184.96875 157.203125 183.253906 155.394531 183.253906 153.011719 L 183.253906 132.234375 C 183.253906 129.851562 184.96875 128.042969 187.351562 128.042969 C 189.734375 128.042969 191.546875 129.851562 191.546875 132.234375 L 191.546875 153.011719 C 191.546875 155.394531 189.734375 157.203125 187.351562 157.203125 Z M 187.351562 157.203125 " fill-opacity="1" fill-rule="evenodd"/><g clip-path="url(#b796ea74b3)"><path fill="#ffffff" d="M 187.351562 136.332031 C 180.492188 136.332031 174.867188 130.710938 174.867188 123.847656 C 174.867188 116.988281 180.492188 111.363281 187.351562 111.363281 C 194.214844 111.363281 199.933594 116.988281 199.933594 123.847656 C 199.933594 130.710938 194.214844 136.332031 187.351562 136.332031 Z M 187.351562 136.332031 " fill-opacity="1" fill-rule="evenodd"/></g><g clip-path="url(#d0a098fb02)"><path fill="#ffffff" d="M 255.589844 170.164062 C 263.402344 174.265625 268.742188 182.460938 268.742188 191.800781 C 268.929688 201.140625 263.59375 209.429688 255.589844 213.527344 Z M 255.589844 170.164062 " fill-opacity="1" fill-rule="evenodd"/></g><g clip-path="url(#2230d125bb)"><path fill="#ffffff" d="M 118.828125 213.242188 C 111.300781 209.050781 106.058594 200.949219 106.058594 191.800781 C 106.058594 182.554688 111.300781 174.453125 118.828125 170.355469 Z M 118.828125 213.242188 " fill-opacity="1" fill-rule="evenodd"/></g></svg>