<svg xmlns="http://www.w3.org/2000/svg" xmlns:xlink="http://www.w3.org/1999/xlink" width="500" zoomAndPan="magnify" viewBox="0 0 375 374.999991" height="500" preserveAspectRatio="xMidYMid meet" version="1.0"><defs><clipPath id="4cd30c0d1e"><path d="M 123 121 L 355.019531 121 L 355.019531 355.019531 L 123 355.019531 Z M 123 121 " clip-rule="nonzero"/></clipPath><clipPath id="c7c0f61df0"><path d="M 19.769531 19.769531 L 247 19.769531 L 247 249 L 19.769531 249 Z M 19.769531 19.769531 " clip-rule="nonzero"/></clipPath><clipPath id="4d2e842c04"><path d="M 124 141 L 264 141 L 264 239.214844 L 124 239.214844 Z M 124 141 " clip-rule="nonzero"/></clipPath><clipPath id="f2c7e2226f"><path d="M 179 99.714844 L 209 99.714844 L 209 129 L 179 129 Z M 179 99.714844 " clip-rule="nonzero"/></clipPath><clipPath id="1036ea4e3b"><path d="M 271 166 L 286.242188 166 L 286.242188 216 L 271 216 Z M 271 166 " clip-rule="nonzero"/></clipPath><clipPath id="bdfeb2bdfd"><path d="M 101.742188 166 L 117 166 L 117 216 L 101.742188 216 Z M 101.742188 166 " clip-rule="nonzero"/></clipPath></defs><g clip-path="url(#4cd30c0d1e)"><path fill="#bb1a34" d="M 329.007812 203.90625 L 246.425781 121.441406 L 123.183594 248.296875 L 204.054688 329.175781 L 204.0625 329.167969 C 220.070312 345.136719 242.160156 355.019531 266.550781 355.019531 C 315.402344 355.019531 355.019531 315.402344 355.019531 266.550781 C 355.019531 242.078125 345.074219 219.921875 329.007812 203.90625 Z M 329.007812 203.90625 " fill-opacity="1" fill-rule="nonzero"/></g><g clip-path="url(#c7c0f61df0)"><path fill="#fdcb58" d="M 168.03125 43.171875 C 152.277344 28.679688 131.324219 19.769531 108.238281 19.769531 C 59.375 19.769531 19.769531 59.375 19.769531 108.238281 C 19.769531 131.324219 28.691406 152.285156 43.179688 168.03125 L 43.050781 168.164062 L 123.183594 248.296875 L 246.425781 121.441406 Z M 168.03125 43.171875 " fill-opacity="1" fill-rule="nonzero"/></g><g clip-path="url(#4d2e842c04)"><path fill="#ffffff" d="M 252.003906 239.121094 L 135.921875 239.121094 C 129.441406 239.121094 124.367188 234.046875 124.367188 227.675781 L 124.367188 153.382812 C 124.367188 146.90625 129.441406 141.9375 135.921875 141.9375 L 251.679688 141.9375 C 258.050781 141.9375 263.125 146.90625 263.125 153.382812 L 263.125 227.675781 C 263.449219 234.046875 258.050781 239.121094 252.003906 239.121094 Z M 213.667969 220.550781 L 173.824219 220.550781 C 171.121094 220.550781 169.179688 218.496094 169.179688 215.796875 C 169.179688 213.097656 171.121094 211.046875 173.824219 211.046875 L 213.992188 211.046875 C 216.691406 211.046875 218.742188 213.097656 218.742188 215.796875 C 218.742188 218.496094 216.367188 220.550781 213.667969 220.550781 Z M 164.429688 196.253906 C 154.601562 196.253906 146.503906 188.15625 146.503906 178.328125 C 146.503906 168.609375 154.601562 160.511719 164.429688 160.511719 C 174.253906 160.511719 182.351562 168.609375 182.351562 178.328125 C 182.351562 188.476562 174.578125 196.253906 164.429688 196.253906 Z M 164.429688 170.554688 C 160 170.554688 156.328125 174.332031 156.328125 178.652344 C 156.328125 183.078125 160 186.75 164.429688 186.75 C 168.746094 186.75 172.527344 183.078125 172.527344 178.652344 C 172.527344 174.332031 169.179688 170.554688 164.429688 170.554688 Z M 223.171875 196.253906 C 213.34375 196.253906 205.246094 188.15625 205.246094 178.328125 C 205.246094 168.609375 213.34375 160.511719 223.171875 160.511719 C 232.890625 160.511719 240.988281 168.609375 240.988281 178.328125 C 240.664062 188.476562 232.890625 196.253906 223.171875 196.253906 Z M 223.171875 170.554688 C 218.742188 170.554688 215.070312 174.332031 215.070312 178.652344 C 215.070312 183.078125 218.742188 186.75 223.171875 186.75 C 227.488281 186.75 231.269531 183.078125 231.269531 178.652344 C 230.945312 174.332031 227.488281 170.554688 223.171875 170.554688 Z M 223.171875 170.554688 " fill-opacity="1" fill-rule="evenodd"/></g><path fill="#ffffff" d="M 193.90625 151.65625 C 191.207031 151.65625 189.265625 149.605469 189.265625 146.90625 L 189.265625 123.363281 C 189.265625 120.664062 191.207031 118.613281 193.90625 118.613281 C 196.605469 118.613281 198.660156 120.664062 198.660156 123.363281 L 198.660156 146.90625 C 198.660156 149.605469 196.605469 151.65625 193.90625 151.65625 Z M 193.90625 151.65625 " fill-opacity="1" fill-rule="evenodd"/><g clip-path="url(#f2c7e2226f)"><path fill="#ffffff" d="M 193.90625 128.007812 C 186.132812 128.007812 179.761719 121.636719 179.761719 113.863281 C 179.761719 106.085938 186.132812 99.714844 193.90625 99.714844 C 201.683594 99.714844 208.160156 106.085938 208.160156 113.863281 C 208.160156 121.636719 201.683594 128.007812 193.90625 128.007812 Z M 193.90625 128.007812 " fill-opacity="1" fill-rule="evenodd"/></g><g clip-path="url(#1036ea4e3b)"><path fill="#ffffff" d="M 271.222656 166.34375 C 280.078125 170.984375 286.125 180.273438 286.125 190.855469 C 286.339844 201.4375 280.292969 210.832031 271.222656 215.472656 Z M 271.222656 166.34375 " fill-opacity="1" fill-rule="evenodd"/></g><g clip-path="url(#bdfeb2bdfd)"><path fill="#ffffff" d="M 116.265625 215.148438 C 107.738281 210.398438 101.796875 201.21875 101.796875 190.855469 C 101.796875 180.378906 107.738281 171.199219 116.265625 166.558594 Z M 116.265625 215.148438 " fill-opacity="1" fill-rule="evenodd"/></g></svg>